# xmcd CD database file
#
# Track frame offsets:
#	150
#	31415
#	60047
#	79181
#	101458
#	143326
#	189687
#	220294
#	244859
#	282145
#
# Disc length: 4267 seconds
#
# Revision: 0
# Processed by: cddbd v1.4PL0 Copyright (c) Steve Scherf et al.
# Submitted via: CDex 1.50beta10
#
DISCID=8010a90a
DTITLE=Pat Metheny Group - Best Of
DYEAR=2003
DGENRE=Jazz
TTITLE0=Cross The Heartland
TTITLE1=Airstream
TTITLE2=American Garage
TTITLE3=The Search
TTITLE4=First Circle
TTITLE5=San Lorenzo
TTITLE6=James
TTITLE7=Slip Away
TTITLE8=April Joy
TTITLE9=Phase Dance
EXTD=YEAR: 2003
EXTT0=
EXTT1=
EXTT2=
EXTT3=
EXTT4=
EXTT5=
EXTT6=
EXTT7=
EXTT8=
EXTT9=
PLAYORDER=
